ffmpeg started on 2025-06-07 at 18:15:18
Report written to "D:\Convert\FFMetrics\reports\ssim_report-6.txt"
Log level: 32
Command line:
ffmpeg -hide_banner -nostdin -i "G:\\\xc0\xed\xe8\xec\xe5\\\xce\xed\xe3\xee\xe8\xed\xe3\xe8\\!_36_\xce\xf1\xe5\xed\xfc_2024\\DreamCast\\\xdf \xf1\xf2\xe0\xed\xf3 \xe7\xeb\xee\xe4\xe5\xe9\xea\xee\xe9, \xea\xee\xf2\xee\xf0\xe0\xff \xe2\xee\xe9\xe4\xb8\xf2 \xe2 \xe8\xf1\xf2\xee\xf0\xe8\xfe\\[DC] Rekishi ni Nokoru Akujo ni Naruzo - 05_Telegram_HEVC.mkv" -i "G:\\\xc0\xed\xe8\xec\xe5\\\xce\xed\xe3\xee\xe8\xed\xe3\xe8\\!_36_\xce\xf1\xe5\xed\xfc_2024\\DreamCast\\\xdf \xf1\xf2\xe0\xed\xf3 \xe7\xeb\xee\xe4\xe5\xe9\xea\xee\xe9, \xea\xee\xf2\xee\xf0\xe0\xff \xe2\xee\xe9\xe4\xb8\xf2 \xe2 \xe8\xf1\xf2\xee\xf0\xe8\xfe\\[DC] Rekishi ni Nokoru Akujo ni Naruzo - 05_Telegram.mp4" -lavfi "[0:v]settb=AVTB,setpts=PTS-STARTPTS,format=pix_fmts=yuv420p10,fps=24000/1001,scale=1920:1080:flags=bicubic[main];[1:v]settb=AVTB,setpts=PTS-STARTPTS,format=pix_fmts=yuv420p,fps=24000/1001,scale=1920:1080:flags=bicubic[ref];[main][ref]ssim=eof_action=endall:stats_file='D\\:/Convert/FFMetrics/logs/ssim_logfile-6.txt'" -f null -
Input #0, matroska,webm, from 'G:\Аниме\Онгоинги\!_36_Осень_2024\DreamCast\Я стану злодейкой, которая войдёт в историю\[DC] Rekishi ni Nokoru Akujo ni Naruzo - 05_Telegram_HEVC.mkv':
  Metadata:
    COMPATIBLE_BRANDS: isomiso2avc1mp41
    MAJOR_BRAND     : isom
    MINOR_VERSION   : 512
    ENCODER         : Lavf61.7.100
  Duration: 00:23:46.69, start: -0.021000, bitrate: 818 kb/s
  Stream #0:0: Video: hevc (Main 10), yuv420p10le(tv, bt709, progressive), 1920x1080 [SAR 1:1 DAR 16:9], 23.98 fps, 23.98 tbr, 1k tbn (default)
      Metadata:
        HANDLER_NAME    : VideoHandler
        VENDOR_ID       : [0][0][0][0]
        ENCODER         : Lavc61.19.100 libx265
        BPS             : 620783
        DURATION        : 00:23:46.591708333
        NUMBER_OF_FRAMES: 34204
        NUMBER_OF_BYTES : 110700478
        _STATISTICS_WRITING_APP: mkvpropedit v66.0.0 ('Josie') 64-bit
        _STATISTICS_WRITING_DATE_UTC: 2025-06-06 10:18:27
        _STATISTICS_TAGS: BPS DURATION NUMBER_OF_FRAMES NUMBER_OF_BYTES
  Stream #0:1: Audio: aac (LC), 48000 Hz, stereo, fltp (default)
      Metadata:
        HANDLER_NAME    : SoundHandler
        VENDOR_ID       : [0][0][0][0]
        ENCODER         : Lavc61.19.100 aac
        BPS             : 193332
        DURATION        : 00:23:46.688000000
        NUMBER_OF_FRAMES: 66877
        NUMBER_OF_BYTES : 34478061
        _STATISTICS_WRITING_APP: mkvpropedit v66.0.0 ('Josie') 64-bit
        _STATISTICS_WRITING_DATE_UTC: 2025-06-06 10:18:27
        _STATISTICS_TAGS: BPS DURATION NUMBER_OF_FRAMES NUMBER_OF_BYTES
Input #1, mov,mp4,m4a,3gp,3g2,mj2, from 'G:\Аниме\Онгоинги\!_36_Осень_2024\DreamCast\Я стану злодейкой, которая войдёт в историю\[DC] Rekishi ni Nokoru Akujo ni Naruzo - 05_Telegram.mp4':
  Metadata:
    major_brand     : isom
    minor_version   : 512
    compatible_brands: isomiso2avc1mp41
    encoder         : Lavf61.1.100
  Duration: 00:23:46.66, start: 0.000000, bitrate: 3225 kb/s
  Stream #1:0[0x1](und): Video: h264 (High) (avc1 / 0x31637661), yuv420p(tv, bt709, progressive), 1920x1080 [SAR 1:1 DAR 16:9], 3077 kb/s, 23.98 fps, 23.98 tbr, 24k tbn (default)
      Metadata:
        handler_name    : VideoHandler
        vendor_id       : [0][0][0][0]
        encoder         : Lavc61.3.100 h264_qsv
  Stream #1:1[0x2](und): Audio: aac (HE-AACv2) (mp4a / 0x6134706D), 48000 Hz, stereo, fltp, 144 kb/s (default)
      Metadata:
        handler_name    : SoundHandler
        vendor_id       : [0][0][0][0]
Stream mapping:
  Stream #0:0 (hevc) -> settb:default
  Stream #1:0 (h264) -> settb:default
  ssim:default -> Stream #0:0 (wrapped_avframe)
  Stream #0:1 -> #0:1 (aac (native) -> pcm_s16le (native))
Output #0, null, to 'pipe:':
  Metadata:
    COMPATIBLE_BRANDS: isomiso2avc1mp41
    MAJOR_BRAND     : isom
    MINOR_VERSION   : 512
    encoder         : Lavf61.7.100
  Stream #0:0: Video: wrapped_avframe, yuv420p10le(tv, bt709, progressive), 1920x1080 [SAR 1:1 DAR 16:9], q=2-31, 200 kb/s, 23.98 fps, 23.98 tbn
      Metadata:
        encoder         : Lavc61.19.100 wrapped_avframe
  Stream #0:1: Audio: pcm_s16le, 48000 Hz, stereo, s16, 1536 kb/s (default)
      Metadata:
        HANDLER_NAME    : SoundHandler
        VENDOR_ID       : [0][0][0][0]
        _STATISTICS_TAGS: BPS DURATION NUMBER_OF_FRAMES NUMBER_OF_BYTES
        BPS             : 193332
        DURATION        : 00:23:46.688000000
        NUMBER_OF_FRAMES: 66877
        NUMBER_OF_BYTES : 34478061
        _STATISTICS_WRITING_APP: mkvpropedit v66.0.0 ('Josie') 64-bit
        _STATISTICS_WRITING_DATE_UTC: 2025-06-06 10:18:27
        encoder         : Lavc61.19.100 pcm_s16le
frame=  170 fps=0.0 q=-0.0 size=N/A time=00:00:07.09 bitrate=N/A speed=14.1x    frame=  391 fps=382 q=-0.0 size=N/A time=00:00:16.30 bitrate=N/A speed=15.9x    frame=  607 fps=396 q=-0.0 size=N/A time=00:00:25.31 bitrate=N/A speed=16.5x    frame=  810 fps=394 q=-0.0 size=N/A time=00:00:33.78 bitrate=N/A speed=16.4x    frame= 1027 fps=400 q=-0.0 size=N/A time=00:00:42.83 bitrate=N/A speed=16.7x    frame= 1262 fps=408 q=-0.0 size=N/A time=00:00:52.63 bitrate=N/A speed=  17x    frame= 1478 fps=410 q=-0.0 size=N/A time=00:01:01.64 bitrate=N/A speed=17.1x    frame= 1720 fps=418 q=-0.0 size=N/A time=00:01:11.73 bitrate=N/A speed=17.4x    frame= 1992 fps=430 q=-0.0 size=N/A time=00:01:23.08 bitrate=N/A speed=17.9x    frame= 2225 fps=432 q=-0.0 size=N/A time=00:01:32.80 bitrate=N/A speed=  18x    frame= 2431 fps=429 q=-0.0 size=N/A time=00:01:41.39 bitrate=N/A speed=17.9x    frame= 2617 fps=423 q=-0.0 size=N/A time=00:01:49.15 bitrate=N/A speed=17.7x    frame= 2832 fps=423 q=-0.0 size=N/A time=00:01:58.11 bitrate=N/A speed=17.7x    frame= 3053 fps=423 q=-0.0 size=N/A time=00:02:07.33 bitrate=N/A speed=17.6x    frame= 3248 fps=420 q=-0.0 size=N/A time=00:02:15.46 bitrate=N/A speed=17.5x    frame= 3448 fps=419 q=-0.0 size=N/A time=00:02:23.81 bitrate=N/A speed=17.5x    frame= 3663 fps=418 q=-0.0 size=N/A time=00:02:32.77 bitrate=N/A speed=17.4x    frame= 3877 fps=418 q=-0.0 size=N/A time=00:02:41.70 bitrate=N/A speed=17.4x    frame= 4059 fps=415 q=-0.0 size=N/A time=00:02:49.29 bitrate=N/A speed=17.3x    frame= 4327 fps=420 q=-0.0 size=N/A time=00:03:00.47 bitrate=N/A speed=17.5x    frame= 4576 fps=423 q=-0.0 size=N/A time=00:03:10.85 bitrate=N/A speed=17.6x    frame= 4848 fps=428 q=-0.0 size=N/A time=00:03:22.20 bitrate=N/A speed=17.8x    frame= 5099 fps=430 q=-0.0 size=N/A time=00:03:32.67 bitrate=N/A speed=17.9x    frame= 5373 fps=434 q=-0.0 size=N/A time=00:03:44.09 bitrate=N/A speed=18.1x    frame= 5615 fps=436 q=-0.0 size=N/A time=00:03:54.19 bitrate=N/A speed=18.2x    frame= 5877 fps=438 q=-0.0 size=N/A time=00:04:05.11 bitrate=N/A speed=18.3x    frame= 6146 fps=442 q=-0.0 size=N/A time=00:04:16.33 bitrate=N/A speed=18.4x    frame= 6417 fps=445 q=-0.0 size=N/A time=00:04:27.64 bitrate=N/A speed=18.5x    frame= 6687 fps=447 q=-0.0 size=N/A time=00:04:38.90 bitrate=N/A speed=18.7x    frame= 6959 fps=450 q=-0.0 size=N/A time=00:04:50.24 bitrate=N/A speed=18.8x    frame= 7237 fps=453 q=-0.0 size=N/A time=00:05:01.84 bitrate=N/A speed=18.9x    frame= 7516 fps=456 q=-0.0 size=N/A time=00:05:13.47 bitrate=N/A speed=  19x    frame= 7785 fps=458 q=-0.0 size=N/A time=00:05:24.69 bitrate=N/A speed=19.1x    frame= 8044 fps=459 q=-0.0 size=N/A time=00:05:35.50 bitrate=N/A speed=19.1x    frame= 8322 fps=461 q=-0.0 size=N/A time=00:05:47.09 bitrate=N/A speed=19.2x    frame= 8582 fps=463 q=-0.0 size=N/A time=00:05:57.94 bitrate=N/A speed=19.3x    frame= 8864 fps=465 q=-0.0 size=N/A time=00:06:09.70 bitrate=N/A speed=19.4x    frame= 9136 fps=467 q=-0.0 size=N/A time=00:06:21.04 bitrate=N/A speed=19.5x    frame= 9386 fps=467 q=-0.0 size=N/A time=00:06:31.47 bitrate=N/A speed=19.5x    frame= 9631 fps=467 q=-0.0 size=N/A time=00:06:41.69 bitrate=N/A speed=19.5x    frame= 9902 fps=469 q=-0.0 size=N/A time=00:06:52.99 bitrate=N/A speed=19.5x    frame=10157 fps=469 q=-0.0 size=N/A time=00:07:03.63 bitrate=N/A speed=19.6x    frame=10433 fps=471 q=-0.0 size=N/A time=00:07:15.14 bitrate=N/A speed=19.6x    frame=10693 fps=472 q=-0.0 size=N/A time=00:07:25.98 bitrate=N/A speed=19.7x    frame=10970 fps=473 q=-0.0 size=N/A time=00:07:37.54 bitrate=N/A speed=19.7x    frame=11245 fps=474 q=-0.0 size=N/A time=00:07:49.01 bitrate=N/A speed=19.8x    frame=11517 fps=475 q=-0.0 size=N/A time=00:08:00.35 bitrate=N/A speed=19.8x    frame=11759 fps=475 q=-0.0 size=N/A time=00:08:10.44 bitrate=N/A speed=19.8x    frame=12009 fps=475 q=-0.0 size=N/A time=00:08:20.87 bitrate=N/A speed=19.8x    frame=12274 fps=476 q=-0.0 size=N/A time=00:08:31.92 bitrate=N/A speed=19.9x    frame=12546 fps=477 q=-0.0 size=N/A time=00:08:43.27 bitrate=N/A speed=19.9x    frame=12802 fps=477 q=-0.0 size=N/A time=00:08:53.95 bitrate=N/A speed=19.9x    frame=13059 fps=478 q=-0.0 size=N/A time=00:09:04.66 bitrate=N/A speed=19.9x    frame=13277 fps=477 q=-0.0 size=N/A time=00:09:13.76 bitrate=N/A speed=19.9x    frame=13521 fps=477 q=-0.0 size=N/A time=00:09:23.93 bitrate=N/A speed=19.9x    frame=13772 fps=477 q=-0.0 size=N/A time=00:09:34.40 bitrate=N/A speed=19.9x    frame=14024 fps=477 q=-0.0 size=N/A time=00:09:44.91 bitrate=N/A speed=19.9x    frame=14275 fps=477 q=-0.0 size=N/A time=00:09:55.38 bitrate=N/A speed=19.9x    frame=14484 fps=476 q=-0.0 size=N/A time=00:10:04.10 bitrate=N/A speed=19.9x    frame=14744 fps=477 q=-0.0 size=N/A time=00:10:14.94 bitrate=N/A speed=19.9x    frame=15020 fps=478 q=-0.0 size=N/A time=00:10:26.45 bitrate=N/A speed=19.9x    frame=15301 fps=479 q=-0.0 size=N/A time=00:10:38.17 bitrate=N/A speed=  20x    frame=15560 fps=479 q=-0.0 size=N/A time=00:10:48.98 bitrate=N/A speed=  20x    frame=15823 fps=480 q=-0.0 size=N/A time=00:10:59.95 bitrate=N/A speed=  20x    frame=16097 fps=480 q=-0.0 size=N/A time=00:11:11.37 bitrate=N/A speed=  20x    frame=16336 fps=480 q=-0.0 size=N/A time=00:11:21.34 bitrate=N/A speed=  20x    frame=16555 fps=479 q=-0.0 size=N/A time=00:11:30.48 bitrate=N/A speed=  20x    frame=16822 fps=480 q=-0.0 size=N/A time=00:11:41.61 bitrate=N/A speed=  20x    frame=17076 fps=480 q=-0.0 size=N/A time=00:11:52.21 bitrate=N/A speed=  20x    frame=17319 fps=480 q=-0.0 size=N/A time=00:12:02.34 bitrate=N/A speed=  20x    frame=17570 fps=480 q=-0.0 size=N/A time=00:12:12.85 bitrate=N/A speed=  20x    frame=17849 fps=481 q=-0.0 size=N/A time=00:12:24.45 bitrate=N/A speed=20.1x    frame=18083 fps=481 q=-0.0 size=N/A time=00:12:34.21 bitrate=N/A speed=  20x    frame=18340 fps=481 q=-0.0 size=N/A time=00:12:44.93 bitrate=N/A speed=20.1x    frame=18627 fps=482 q=-0.0 size=N/A time=00:12:56.90 bitrate=N/A speed=20.1x    frame=18887 fps=482 q=-0.0 size=N/A time=00:13:07.74 bitrate=N/A speed=20.1x    frame=19166 fps=483 q=-0.0 size=N/A time=00:13:19.38 bitrate=N/A speed=20.1x    frame=19424 fps=483 q=-0.0 size=N/A time=00:13:30.14 bitrate=N/A speed=20.1x    frame=19672 fps=483 q=-0.0 size=N/A time=00:13:40.48 bitrate=N/A speed=20.1x    frame=19951 fps=484 q=-0.0 size=N/A time=00:13:52.12 bitrate=N/A speed=20.2x    frame=20212 fps=484 q=-0.0 size=N/A time=00:14:03.00 bitrate=N/A speed=20.2x    frame=20490 fps=485 q=-0.0 size=N/A time=00:14:14.60 bitrate=N/A speed=20.2x    frame=20727 fps=484 q=-0.0 size=N/A time=00:14:24.48 bitrate=N/A speed=20.2x    frame=21008 fps=485 q=-0.0 size=N/A time=00:14:36.20 bitrate=N/A speed=20.2x    frame=21301 fps=486 q=-0.0 size=N/A time=00:14:48.42 bitrate=N/A speed=20.3x    frame=21570 fps=486 q=-0.0 size=N/A time=00:14:59.64 bitrate=N/A speed=20.3x    frame=21855 fps=487 q=-0.0 size=N/A time=00:15:11.53 bitrate=N/A speed=20.3x    frame=22061 fps=486 q=-0.0 size=N/A time=00:15:20.12 bitrate=N/A speed=20.3x    frame=22315 fps=486 q=-0.0 size=N/A time=00:15:30.72 bitrate=N/A speed=20.3x    frame=22552 fps=486 q=-0.0 size=N/A time=00:15:40.60 bitrate=N/A speed=20.3x    frame=22801 fps=486 q=-0.0 size=N/A time=00:15:50.99 bitrate=N/A speed=20.3x    frame=23036 fps=485 q=-0.0 size=N/A time=00:16:00.79 bitrate=N/A speed=20.2x    frame=23287 fps=485 q=-0.0 size=N/A time=00:16:11.26 bitrate=N/A speed=20.2x    frame=23507 fps=485 q=-0.0 size=N/A time=00:16:20.43 bitrate=N/A speed=20.2x    frame=23781 fps=485 q=-0.0 size=N/A time=00:16:31.90 bitrate=N/A speed=20.2x    frame=24034 fps=485 q=-0.0 size=N/A time=00:16:42.41 bitrate=N/A speed=20.2x    frame=24268 fps=485 q=-0.0 size=N/A time=00:16:52.17 bitrate=N/A speed=20.2x    frame=24520 fps=485 q=-0.0 size=N/A time=00:17:02.68 bitrate=N/A speed=20.2x    frame=24778 fps=485 q=-0.0 size=N/A time=00:17:13.44 bitrate=N/A speed=20.2x    frame=25007 fps=485 q=-0.0 size=N/A time=00:17:23.00 bitrate=N/A speed=20.2x    frame=25270 fps=485 q=-0.0 size=N/A time=00:17:33.96 bitrate=N/A speed=20.2x    frame=25548 fps=485 q=-0.0 size=N/A time=00:17:45.56 bitrate=N/A speed=20.2x    frame=25836 fps=486 q=-0.0 size=N/A time=00:17:57.57 bitrate=N/A speed=20.3x    frame=26123 fps=487 q=-0.0 size=N/A time=00:18:09.54 bitrate=N/A speed=20.3x    frame=26405 fps=487 q=-0.0 size=N/A time=00:18:21.30 bitrate=N/A speed=20.3x    frame=26664 fps=487 q=-0.0 size=N/A time=00:18:32.11 bitrate=N/A speed=20.3x    frame=26946 fps=488 q=-0.0 size=N/A time=00:18:43.87 bitrate=N/A speed=20.4x    frame=27230 fps=489 q=-0.0 size=N/A time=00:18:55.71 bitrate=N/A speed=20.4x    frame=27478 fps=489 q=-0.0 size=N/A time=00:19:06.06 bitrate=N/A speed=20.4x    frame=27748 fps=489 q=-0.0 size=N/A time=00:19:17.32 bitrate=N/A speed=20.4x    frame=28041 fps=490 q=-0.0 size=N/A time=00:19:29.54 bitrate=N/A speed=20.4x    frame=28311 fps=490 q=-0.0 size=N/A time=00:19:40.80 bitrate=N/A speed=20.4x    frame=28582 fps=490 q=-0.0 size=N/A time=00:19:52.10 bitrate=N/A speed=20.4x    frame=28841 fps=490 q=-0.0 size=N/A time=00:20:02.91 bitrate=N/A speed=20.5x    frame=29099 fps=490 q=-0.0 size=N/A time=00:20:13.67 bitrate=N/A speed=20.5x    frame=29376 fps=491 q=-0.0 size=N/A time=00:20:25.22 bitrate=N/A speed=20.5x    frame=29643 fps=491 q=-0.0 size=N/A time=00:20:36.36 bitrate=N/A speed=20.5x    frame=29875 fps=491 q=-0.0 size=N/A time=00:20:46.03 bitrate=N/A speed=20.5x    frame=30122 fps=491 q=-0.0 size=N/A time=00:20:56.33 bitrate=N/A speed=20.5x    frame=30348 fps=490 q=-0.0 size=N/A time=00:21:05.76 bitrate=N/A speed=20.4x    frame=30557 fps=489 q=-0.0 size=N/A time=00:21:14.48 bitrate=N/A speed=20.4x    frame=30724 fps=488 q=-0.0 size=N/A time=00:21:21.44 bitrate=N/A speed=20.4x    frame=30989 fps=488 q=-0.0 size=N/A time=00:21:32.49 bitrate=N/A speed=20.4x    frame=31233 fps=488 q=-0.0 size=N/A time=00:21:42.67 bitrate=N/A speed=20.4x    frame=31511 fps=489 q=-0.0 size=N/A time=00:21:54.27 bitrate=N/A speed=20.4x    frame=31795 fps=489 q=-0.0 size=N/A time=00:22:06.11 bitrate=N/A speed=20.4x    frame=32041 fps=489 q=-0.0 size=N/A time=00:22:16.37 bitrate=N/A speed=20.4x    frame=32306 fps=489 q=-0.0 size=N/A time=00:22:27.42 bitrate=N/A speed=20.4x    frame=32549 fps=489 q=-0.0 size=N/A time=00:22:37.56 bitrate=N/A speed=20.4x    frame=32787 fps=489 q=-0.0 size=N/A time=00:22:47.49 bitrate=N/A speed=20.4x    frame=33068 fps=489 q=-0.0 size=N/A time=00:22:59.21 bitrate=N/A speed=20.4x    frame=33317 fps=489 q=-0.0 size=N/A time=00:23:09.59 bitrate=N/A speed=20.4x    frame=33531 fps=489 q=-0.0 size=N/A time=00:23:18.52 bitrate=N/A speed=20.4x    frame=33797 fps=489 q=-0.0 size=N/A time=00:23:29.61 bitrate=N/A speed=20.4x    frame=34063 fps=489 q=-0.0 size=N/A time=00:23:40.71 bitrate=N/A speed=20.4x    [Parsed_ssim_10 @ 00000181be74b140] SSIM Y:0.995460 (23.429317) U:0.994467 (22.570227) V:0.994374 (22.497629) All:0.995113 (23.109840)
[out#0/null @ 00000181b1696540] video:14697KiB audio:267508KiB subtitle:0KiB other streams:0KiB global headers:0KiB muxing overhead: unknown
frame=34204 fps=489 q=-0.0 Lsize=N/A time=00:23:46.59 bitrate=N/A speed=20.4x    
